<svg id="Layer_1" xmlns="http://www.w3.org/2000/svg" width="27" height="24"><style>.st0{fill-rule:evenodd;clip-rule:evenodd}</style><path class="st0" d="M24.2 16.5c-.2.1-.4.2-.6.4-.6.3-1.2.5-1.8.5h-8.1c-1.2 0-2.3-.4-3.1-1.3-.8-.8-1.1-1.8-1.1-2.9v-2.5h2.7v2.5c0 .6.2 1.1.8 1.4.2.1.5.1.7.1h7.9c.7 0 1.4-.5 1.4-1.3v-2.9c0-.7-.6-1.3-1.4-1.3h-2.7c-.1 0-.1 0-.2-.1-.3-1-.8-1.8-1.6-2.5v-.1h4c.8 0 1.7.1 2.4.5.2.1.5.3.7.4l.6.6c0 .1.1.1.1.2.5.7.8 1.4.8 2.3v2.7c0 .8-.2 1.6-.6 2.4-.1.1-.2.3-.2.4-.3.1-.5.3-.7.5z"/><path class="st0" d="M2.9 7.5c.1-.1.3-.3.5-.4.6-.3 1.2-.5 1.8-.5h8.1c1.6 0 2.8.7 3.7 2 .4.7.6 1.4.5 2.2v2.5h-2.7v-2.6c0-.8-.6-1.4-1.5-1.4H5.4c-.8 0-1.4.5-1.4 1.3v2.8c0 .8.6 1.3 1.4 1.3h2.7c.1 0 .1.1.2.1.3 1 .8 1.8 1.6 2.5l.1.1H5.8c-1 0-2-.2-2.8-.8 0 0-.1 0-.1-.1l-.6-.6c0-.1-.1-.1-.1-.2-.5-.7-.8-1.4-.8-2.3v-2.9c0-.8.2-1.5.6-2.1.1-.1.2-.3.3-.4.2-.1.4-.3.6-.5z"/></svg>