<?xml version="1.0" encoding="utf-8"?>
<!-- Generator: Adobe Illustrator 16.0.0, SVG Export Plug-In . SVG Version: 6.00 Build 0)  -->
<!DOCTYPE svg PUBLIC "-//W3C//DTD SVG 1.1//EN" "http://www.w3.org/Graphics/SVG/1.1/DTD/svg11.dtd">
<svg version="1.1" id="Layer_1" xmlns="http://www.w3.org/2000/svg" xmlns:xlink="http://www.w3.org/1999/xlink" x="0px" y="0px"
	 width="27px" height="24px" viewBox="0 0 27 24" style="enable-background:new 0 0 27 24;" xml:space="preserve">
<style type="text/css">
<![CDATA[
	.st0{fill-rule:evenodd;clip-rule:evenodd;}
]]>
</style>
<g>
	<path class="st0" d="M24.2,16.5c-0.2,0.1-0.4,0.2-0.6,0.4c-0.6,0.3-1.2,0.5-1.8,0.5c-1.6,0-3.2,0-4.8,0c-1.1,0-2.2,0-3.3,0
		c-1.2,0-2.3-0.4-3.1-1.3c-0.8-0.8-1.1-1.8-1.1-2.9c0-0.8,0-1.5,0-2.3c0-0.1,0-0.1,0-0.2c0.9,0,1.8,0,2.7,0c0,0.8,0,1.6,0,2.5
		c0,0.6,0.2,1.1,0.8,1.4c0.2,0.1,0.5,0.1,0.7,0.1c1,0,2.1,0,3.1,0c1,0,2,0,3.1,0c0.6,0,1.1,0,1.7,0c0.7,0,1.4-0.5,1.4-1.3
		c0-1,0-1.9,0-2.9c0-0.7-0.6-1.3-1.4-1.3c-0.9,0-1.8,0-2.7,0c-0.1,0-0.1,0-0.2-0.1c-0.3-1-0.8-1.8-1.6-2.5c0,0,0,0,0-0.1
		c0.3,0,0.6,0,0.9,0c1,0,2.1,0,3.1,0c0.8,0,1.7,0.1,2.4,0.5c0.2,0.1,0.5,0.3,0.7,0.4c0.2,0.2,0.4,0.4,0.6,0.6c0,0.1,0.1,0.1,0.1,0.2
		c0.5,0.7,0.8,1.4,0.8,2.3c0,0.9,0,1.8,0,2.7c0,0.8-0.2,1.6-0.6,2.4c-0.1,0.1-0.2,0.3-0.2,0.4C24.6,16.1,24.4,16.3,24.2,16.5z"/>
	<path class="st0" d="M2.9,7.5C3,7.4,3.2,7.2,3.4,7.1C4,6.8,4.6,6.6,5.2,6.6c1.4,0,2.9,0,4.3,0c1.3,0,2.6,0,3.8,0
		c1.6,0,2.8,0.7,3.7,2c0.4,0.7,0.6,1.4,0.5,2.2c0,0.8,0,1.6,0,2.4c0,0,0,0.1,0,0.1c-0.9,0-1.8,0-2.7,0c0-0.4,0-0.9,0-1.4
		c0-0.4,0-0.8,0-1.2c0-0.8-0.6-1.4-1.5-1.4c-0.9,0-1.9,0-2.9,0c-0.8,0-1.7,0-2.5,0c-0.8,0-1.7,0-2.5,0c-0.8,0-1.4,0.5-1.4,1.3
		c0,0.9,0,1.9,0,2.8c0,0.8,0.6,1.3,1.4,1.3c0.9,0,1.8,0,2.7,0c0.1,0,0.1,0.1,0.2,0.1c0.3,1,0.8,1.8,1.6,2.5c0,0,0,0,0.1,0.1
		c-0.5,0-0.9,0-1.4,0c-0.9,0-1.9,0-2.8,0c-1,0-2-0.2-2.8-0.8c0,0-0.1,0-0.1-0.1c-0.2-0.2-0.4-0.4-0.6-0.6c0-0.1-0.1-0.1-0.1-0.2
		c-0.5-0.7-0.8-1.4-0.8-2.3c0-1,0-1.9,0-2.9c0-0.8,0.2-1.5,0.6-2.1c0.1-0.1,0.2-0.3,0.3-0.4C2.5,7.9,2.7,7.7,2.9,7.5z"/>
</g>
</svg>
