<?xml version="1.0" encoding="utf-8"?>
<!-- Generator: Adobe Illustrator 16.0.0, SVG Export Plug-In . SVG Version: 6.00 Build 0)  -->
<!DOCTYPE svg PUBLIC "-//W3C//DTD SVG 1.1//EN" "http://www.w3.org/Graphics/SVG/1.1/DTD/svg11.dtd">
<svg version="1.1" id="Layer_1" xmlns="http://www.w3.org/2000/svg" xmlns:xlink="http://www.w3.org/1999/xlink" x="0px" y="0px"
	 width="27px" height="24px" viewBox="0 0 27 24" style="enable-background:new 0 0 27 24;" xml:space="preserve">
<g>
	<g>
		<path d="M3.7,12c0,4,2.3,7.4,5.7,9L4.5,7.9C4,9.2,3.6,10.5,3.7,12L3.7,12z M20.4,11.5c0-1.2-0.4-2.1-0.8-2.8c-0.5-0.8-1-1.5-1-2.3
			c0-0.9,0.7-1.8,1.7-1.8c0,0,0.1,0,0.1,0C18.6,3,16.3,2,13.7,2c-3.5,0-6.6,1.8-8.4,4.5c0.2,0,0.5,0,0.7,0c1,0,2.7-0.1,2.7-0.1
			c0.5,0,0.6,0.8,0.1,0.8c0,0-0.5,0.1-1.1,0.1l3.6,10.8l2.2-6.6l-1.6-4.3c-0.5,0-1-0.1-1-0.1c-0.5,0-0.5-0.9,0.1-0.8
			c0,0,1.6,0.1,2.6,0.1c1,0,2.7-0.1,2.7-0.1c0.5,0,0.6,0.8,0.1,0.8c0,0-0.5,0.1-1.1,0.1l3.6,10.8l1-3.3
			C20.1,13.3,20.4,12.4,20.4,11.5L20.4,11.5z M13.8,12.9l-3,8.7c0.9,0.3,1.9,0.4,2.8,0.4c1.2,0,2.3-0.2,3.3-0.6c0,0-0.1-0.1-0.1-0.1
			L13.8,12.9z M22.5,7.2c0,0.3,0.1,0.7,0.1,1c0,1-0.2,2.2-0.8,3.6l-3.1,8.8c3-1.7,5-5,5-8.7C23.7,10.2,23.2,8.6,22.5,7.2L22.5,7.2z
			 M13.7,0.3C7.2,0.3,2,5.6,2,12c0,6.4,5.2,11.7,11.7,11.7c6.4,0,11.7-5.2,11.7-11.7C25.3,5.6,20.1,0.3,13.7,0.3z M13.7,23.1
			c-6.1,0-11.1-5-11.1-11.1c0-6.1,5-11.1,11.1-11.1c6.1,0,11.1,5,11.1,11.1C24.8,18.1,19.8,23.1,13.7,23.1z"/>
	</g>
</g>
</svg>
