<svg xmlns="http://www.w3.org/2000/svg" width="27" height="24"><path d="M3.7 12c0 4 2.3 7.4 5.7 9L4.5 7.9c-.5 1.3-.9 2.6-.8 4.1zm16.7-.5c0-1.2-.4-2.1-.8-2.8-.5-.8-1-1.5-1-2.3 0-.9.7-1.8 1.7-1.8h.1C18.6 3 16.3 2 13.7 2c-3.5 0-6.6 1.8-8.4 4.5H6c1 0 2.7-.1 2.7-.1.5 0 .6.8.1.8 0 0-.5.1-1.1.1l3.6 10.8 2.2-6.6-1.6-4.3c-.5 0-1-.1-1-.1-.5 0-.5-.9.1-.8 0 0 1.6.1 2.6.1s2.7-.1 2.7-.1c.5 0 .6.8.1.8 0 0-.5.1-1.1.1L18.9 18l1-3.3c.2-1.4.5-2.3.5-3.2zm-6.6 1.4l-3 8.7c.9.3 1.9.4 2.8.4 1.2 0 2.3-.2 3.3-.6l-.1-.1-3-8.4zm8.7-5.7c0 .3.1.7.1 1 0 1-.2 2.2-.8 3.6l-3.1 8.8c3-1.7 5-5 5-8.7 0-1.7-.5-3.3-1.2-4.7zM13.7.3C7.2.3 2 5.6 2 12c0 6.4 5.2 11.7 11.7 11.7 6.4 0 11.7-5.2 11.7-11.7C25.3 5.6 20.1.3 13.7.3zm0 22.8c-6.1 0-11.1-5-11.1-11.1S7.6.9 13.7.9s11.1 5 11.1 11.1-5 11.1-11.1 11.1z"/></svg>