<svg xmlns="http://www.w3.org/2000/svg" viewBox="0 0 366 100.7"><path d="M191 62.4l1.8-4.3c2.5 1.3 4.9 1.8 7.2 1.8 1.4 0 2.6-.3 3.6-.8s1.5-1.3 1.5-2.1c0-1.6-1.7-3-5.3-4.2-5.9-1.9-8.8-4.6-8.8-8.1 0-2.4.9-4.4 2.8-5.8 1.8-1.5 4.4-2.1 7.5-2.1 1.3 0 2.7.2 4.4.7s3.2 1.2 4.4 1.9l-1.9 4.2c-1.3-.6-2.5-1.1-3.6-1.4s-2.2-.5-3.5-.5c-1.2 0-2.1.3-2.9.9-.8.6-1.2 1.3-1.2 2 0 .6.5 1.2 1.4 1.7s2 1.1 3.5 1.5c6.1 2.1 9.1 5.1 9.1 8.8 0 2.6-1 4.6-2.8 6.1-1.9 1.5-4.6 2.1-8.2 2.1-1.4 0-2.9-.2-4.6-.7-1.8-.3-3.3-1-4.4-1.7zM240.6 47v17.2h-6.2V47.4c0-3.7-1.4-5.6-4.2-5.6-2.2 0-4.8 1.3-7.7 3.7v18.7h-6.2V25.9l6.2-.6V40c1.5-1.1 3.1-1.8 4.6-2.4 1.5-.6 3.1-.9 4.5-.9 6-.1 9 3.4 9 10.3zM271 58.2c-1.2 2.1-2.7 3.8-4.8 4.9-2.1 1.2-4.5 1.7-7.4 1.7-2.8 0-5.2-.6-7.3-1.7-2-1.2-3.7-2.8-4.7-4.9-1.2-2.1-1.6-4.5-1.6-7.4 0-2.8.6-5.2 1.6-7.4 1.2-2.1 2.7-3.8 4.8-4.9 2.1-1.2 4.5-1.7 7.4-1.7 2.8 0 5.2.6 7.4 1.7 2 1.2 3.7 2.8 4.8 4.9 1.2 2.1 1.6 4.6 1.6 7.4 0 2.7-.7 5.3-1.8 7.4zm-6.7-1c1.4-1.6 2-3.8 2-6.2 0-2.6-.7-4.7-2-6.4-1.4-1.6-3.1-2.4-5.4-2.4-2.2 0-4 .9-5.4 2.5-1.5 1.6-2.1 3.8-2.1 6.3 0 2.6.7 4.7 2 6.4 1.4 1.6 3.1 2.4 5.4 2.4 2.3-.2 4-1 5.5-2.6zm32-18.7c2 1.2 3.6 2.8 4.6 4.9 1.1 2.1 1.6 4.6 1.6 7.5 0 2.8-.6 5.2-1.6 7.4-1.1 2.1-2.7 3.8-4.7 4.9-2 1.2-4.4 1.7-7.2 1.7-1.6 0-3.3-.5-5.1-1.5v12.2l-6.2.6V37.5h3.3l1.4 1.7c1.1-.8 2.2-1.5 3.4-1.8 1.3-.4 2.3-.7 3.4-.7 2.7 0 5.1.6 7.1 1.8zm-2 18.7c1.3-1.6 1.9-3.7 1.9-6.2 0-2.6-.6-4.7-1.8-6.4-1.3-1.6-3-2.4-5.2-2.4-1 0-1.8.2-2.7.5-.9.3-1.6.8-2.4 1.4v14.1c1.5 1.1 3.2 1.6 5.1 1.6 2.1-.2 3.8-1 5.1-2.6zm15.9-24c-1.1 0-1.8-.4-2.6-1.1-.7-.7-1.1-1.5-1.1-2.6 0-1 .4-1.8 1.1-2.6.7-.7 1.5-1.1 2.5-1.1 1.1 0 1.9.4 2.6 1.1s1.1 1.5 1.1 2.6-.4 1.9-1.1 2.6c-.5.8-1.4 1.1-2.5 1.1zm3.2 4.3v26.7h-6.2V37.5h6.2zm8.1 5h-4.1v-4.7h4.1V35c0-2.9.9-5.2 2.5-6.9 1.6-1.6 4-2.5 7-2.5.8 0 1.7.1 2.7.4s1.7.6 2.2 1.1l-1.7 4.6c-1.2-.5-2.1-.7-2.8-.7-1.3 0-2.1.4-2.7 1.3-.6.9-.9 2-.9 3.5v2h4.9l2 4.7h-7v21.8h-6.2V42.5zm23 24.1l1.4-3.7-9.5-24.5 6-2 6.9 18.8 6.5-17.8h6.5l-11.9 30.9c-.8 1.9-2 3.7-4 5-1.9 1.5-4 2.4-6.3 2.9l-2.1-4.9c1.8-.8 3.3-1.5 4.4-2.2.9-.5 1.7-1.4 2.1-2.5zM158.1 37.5l-8.4 26.7h-5.5l-5.4-17.8-5.2 17.8h-5.4l-8-25.7 6-1.9 4.8 18.2 4.5-17.2h6.8l4.8 17.2 4.5-17.2c0-.1 6.5-.1 6.5-.1zm22.5 1c2 1.2 3.6 2.8 4.6 4.9 1.1 2.1 1.6 4.6 1.6 7.5 0 2.7-.6 5.2-1.6 7.4-1.1 2.1-2.7 3.8-4.7 4.9-2 1.1-4.4 1.7-7.2 1.7-1.6 0-3.3-.5-5.1-1.5v12.2l-6.2.6V37.5h3.3l1.4 1.7c1.1-.8 2.2-1.5 3.4-1.8 1.3-.4 2.3-.7 3.4-.7 2.8 0 5.1.6 7.1 1.8zm-2 18.7c1.3-1.6 1.9-3.7 1.9-6.2 0-2.6-.6-4.7-1.8-6.4-1.3-1.6-3-2.4-5.2-2.4-1 0-1.8.2-2.7.5s-1.6.8-2.4 1.4v14.1c1.5 1.1 3.2 1.6 5.1 1.6 2.1-.2 3.9-1 5.1-2.6z" fill="#2d2d2d"/><circle cx="53.2" cy="50.5" r="48.7" fill="#0374ac"/><path d="M38.2 71.4l-3.4-13.1-.8-2.9-7.3-27.7c-.4-1.7-1.7-2.3-3-2.3-.4 0-.6 0-1 .1-1.6.3-3 1.1-3 2.7 0 .3.1.6.1 1l13.3 48.6c.7 2.5 2.5 3.5 4.7 3.5 1.1 0 2-.2 2.8-.7l-2.4-9.2zm46.3-45.9c-.3-.1-.6-.1-.9-.1-1.5 0-2.7.6-3.2 2.3l-4.9 18.6v-.1l-1.1 4-1.6 6 3.3 12.2 11.2-39.3c.1-.3.1-.6.1-.8.1-1.6-1.3-2.5-2.9-2.8zM69.1 71.4l-.1-.5-3-11.3-2.4-9.2-1.9-7.1-3.8-14.6c-.6-2.3-2.2-3.2-4.4-3.2-2.4 0-4 .9-4.6 3.1l-5.5 21.5.1-.5-1.6 6.2 3 10.8L49 49s.5-4.1 4.2-4.1c2.6 0 3.7 2.2 4.1 3.4-.5-.8-1.2-1.4-2.2-1.4-2.5 0-3.2 4.5-3.2 4.5l-.9 4.4h8.1c2.1 8.8 5.2 22 5.2 22 .6 2.6 2.5 3.5 4.7 3.5 1.1 0 2-.2 2.8-.7l-2.7-9.2z" fill="#fff"/></svg>