<?xml version="1.0" encoding="utf-8"?>
<!-- Generator: Adobe Illustrator 21.0.0, SVG Export Plug-In . SVG Version: 6.00 Build 0)  -->
<svg version="1.1" id="Layer_1" xmlns="http://www.w3.org/2000/svg" xmlns:xlink="http://www.w3.org/1999/xlink" x="0px" y="0px"
	 viewBox="0 0 366 100.7" style="enable-background:new 0 0 366 100.7;" xml:space="preserve">
<style type="text/css">
	.st0{fill:#2D2D2D;}
	.st1{fill:#0374AC;}
	.st2{fill:#FFFFFF;}
</style>
<g>
	<path class="st0" d="M191,62.4l1.8-4.3c2.5,1.3,4.9,1.8,7.2,1.8c1.4,0,2.6-0.3,3.6-0.8s1.5-1.3,1.5-2.1c0-1.6-1.7-3-5.3-4.2
		c-5.9-1.9-8.8-4.6-8.8-8.1c0-2.4,0.9-4.4,2.8-5.8c1.8-1.5,4.4-2.1,7.5-2.1c1.3,0,2.7,0.2,4.4,0.7s3.2,1.2,4.4,1.9l-1.9,4.2
		c-1.3-0.6-2.5-1.1-3.6-1.4s-2.2-0.5-3.5-0.5c-1.2,0-2.1,0.3-2.9,0.9c-0.8,0.6-1.2,1.3-1.2,2c0,0.6,0.5,1.2,1.4,1.7s2,1.1,3.5,1.5
		c6.1,2.1,9.1,5.1,9.1,8.8c0,2.6-1,4.6-2.8,6.1c-1.9,1.5-4.6,2.1-8.2,2.1c-1.4,0-2.9-0.2-4.6-0.7C193.6,63.8,192.1,63.1,191,62.4z"
		/>
	<path class="st0" d="M240.6,47v17.2h-6.2V47.4c0-3.7-1.4-5.6-4.2-5.6c-2.2,0-4.8,1.3-7.7,3.7v18.7h-6.2V25.9l6.2-0.6V40
		c1.5-1.1,3.1-1.8,4.6-2.4c1.5-0.6,3.1-0.9,4.5-0.9C237.6,36.6,240.6,40.1,240.6,47z"/>
	<path class="st0" d="M271,58.2c-1.2,2.1-2.7,3.8-4.8,4.9c-2.1,1.2-4.5,1.7-7.4,1.7c-2.8,0-5.2-0.6-7.3-1.7c-2-1.2-3.7-2.8-4.7-4.9
		c-1.2-2.1-1.6-4.5-1.6-7.4c0-2.8,0.6-5.2,1.6-7.4c1.2-2.1,2.7-3.8,4.8-4.9c2.1-1.2,4.5-1.7,7.4-1.7c2.8,0,5.2,0.6,7.4,1.7
		c2,1.2,3.7,2.8,4.8,4.9c1.2,2.1,1.6,4.6,1.6,7.4C272.8,53.5,272.1,56.1,271,58.2z M264.3,57.2c1.4-1.6,2-3.8,2-6.2
		c0-2.6-0.7-4.7-2-6.4c-1.4-1.6-3.1-2.4-5.4-2.4c-2.2,0-4,0.9-5.4,2.5c-1.5,1.6-2.1,3.8-2.1,6.3c0,2.6,0.7,4.7,2,6.4
		c1.4,1.6,3.1,2.4,5.4,2.4C261.1,59.6,262.8,58.8,264.3,57.2z"/>
	<path class="st0" d="M296.3,38.5c2,1.2,3.6,2.8,4.6,4.9c1.1,2.1,1.6,4.6,1.6,7.5c0,2.8-0.6,5.2-1.6,7.4c-1.1,2.1-2.7,3.8-4.7,4.9
		c-2,1.2-4.4,1.7-7.2,1.7c-1.6,0-3.3-0.5-5.1-1.5v12.2l-6.2,0.6V37.5h3.3l1.4,1.7c1.1-0.8,2.2-1.5,3.4-1.8c1.3-0.4,2.3-0.7,3.4-0.7
		C291.9,36.7,294.3,37.3,296.3,38.5z M294.3,57.2c1.3-1.6,1.9-3.7,1.9-6.2c0-2.6-0.6-4.7-1.8-6.4c-1.3-1.6-3-2.4-5.2-2.4
		c-1,0-1.8,0.2-2.7,0.5c-0.9,0.3-1.6,0.8-2.4,1.4v14.1c1.5,1.1,3.2,1.6,5.1,1.6C291.3,59.6,293,58.8,294.3,57.2z"/>
	<path class="st0" d="M310.2,33.2c-1.1,0-1.8-0.4-2.6-1.1c-0.7-0.7-1.1-1.5-1.1-2.6c0-1,0.4-1.8,1.1-2.6c0.7-0.7,1.5-1.1,2.5-1.1
		c1.1,0,1.9,0.4,2.6,1.1s1.1,1.5,1.1,2.6s-0.4,1.9-1.1,2.6C312.2,32.9,311.3,33.2,310.2,33.2z M313.4,37.5v26.7h-6.2V37.5H313.4z"/>
	<path class="st0" d="M321.5,42.5h-4.1v-4.7h4.1V35c0-2.9,0.9-5.2,2.5-6.9c1.6-1.6,4-2.5,7-2.5c0.8,0,1.7,0.1,2.7,0.4
		s1.7,0.6,2.2,1.1l-1.7,4.6c-1.2-0.5-2.1-0.7-2.8-0.7c-1.3,0-2.1,0.4-2.7,1.3c-0.6,0.9-0.9,2-0.9,3.5v2h4.9l2,4.7h-7v21.8h-6.2V42.5
		L321.5,42.5z"/>
	<path class="st0" d="M344.5,66.6l1.4-3.7l-9.5-24.5l6-2l6.9,18.8l6.5-17.8h6.5l-11.9,30.9c-0.8,1.9-2,3.7-4,5
		c-1.9,1.5-4,2.4-6.3,2.9l-2.1-4.9c1.8-0.8,3.3-1.5,4.4-2.2C343.3,68.6,344.1,67.7,344.5,66.6z"/>
</g>
<g>
	<path class="st0" d="M158.1,37.5l-8.4,26.7h-5.5l-5.4-17.8l-5.2,17.8h-5.4l-8-25.7l6-1.9l4.8,18.2l4.5-17.2h6.8l4.8,17.2l4.5-17.2
		C151.6,37.5,158.1,37.5,158.1,37.5z"/>
	<path class="st0" d="M180.6,38.5c2,1.2,3.6,2.8,4.6,4.9c1.1,2.1,1.6,4.6,1.6,7.5c0,2.7-0.6,5.2-1.6,7.4c-1.1,2.1-2.7,3.8-4.7,4.9
		c-2,1.1-4.4,1.7-7.2,1.7c-1.6,0-3.3-0.5-5.1-1.5v12.2l-6.2,0.6V37.5h3.3l1.4,1.7c1.1-0.8,2.2-1.5,3.4-1.8c1.3-0.4,2.3-0.7,3.4-0.7
		C176.3,36.7,178.6,37.3,180.6,38.5z M178.6,57.2c1.3-1.6,1.9-3.7,1.9-6.2c0-2.6-0.6-4.7-1.8-6.4c-1.3-1.6-3-2.4-5.2-2.4
		c-1,0-1.8,0.2-2.7,0.5s-1.6,0.8-2.4,1.4v14.1c1.5,1.1,3.2,1.6,5.1,1.6C175.6,59.6,177.4,58.8,178.6,57.2z"/>
</g>
<circle class="st1" cx="53.2" cy="50.5" r="48.7"/>
<path class="st2" d="M38.2,71.4l-3.4-13.1L34,55.4l-7.3-27.7c-0.4-1.7-1.7-2.3-3-2.3c-0.4,0-0.6,0-1,0.1c-1.6,0.3-3,1.1-3,2.7
	c0,0.3,0.1,0.6,0.1,1l13.3,48.6c0.7,2.5,2.5,3.5,4.7,3.5c1.1,0,2-0.2,2.8-0.7L38.2,71.4z"/>
<path class="st2" d="M87.3,29.1"/>
<path class="st2" d="M84.5,25.5c-0.3-0.1-0.6-0.1-0.9-0.1c-1.5,0-2.7,0.6-3.2,2.3l-4.9,18.6v-0.1l-1.1,4l-1.6,6l3.3,12.2l11.2-39.3
	c0.1-0.3,0.1-0.6,0.1-0.8C87.5,26.7,86.1,25.8,84.5,25.5z"/>
<path class="st2" d="M69.1,71.4L69,70.9l-3-11.3l-2.4-9.2l-1.9-7.1l-3.8-14.6c-0.6-2.3-2.2-3.2-4.4-3.2c-2.4,0-4,0.9-4.6,3.1
	l-5.5,21.5l0.1-0.5l-1.6,6.2l3,10.8L49,49c0,0,0.5-4.1,4.2-4.1c2.6,0,3.7,2.2,4.1,3.4c-0.5-0.8-1.2-1.4-2.2-1.4
	c-2.5,0-3.2,4.5-3.2,4.5L51,55.8h8.1c2.1,8.8,5.2,22,5.2,22c0.6,2.6,2.5,3.5,4.7,3.5c1.1,0,2-0.2,2.8-0.7L69.1,71.4z"/>
</svg>
